<?xml version="1.0" encoding="UTF-8"?>
<svg xmlns="http://www.w3.org/2000/svg" id="a" width="865.76" height="682.89" viewBox="0 0 865.76 682.89">
  <g>
    <path d="M503.99,45.9H242.99c-14.71,.13-26.53,12.15-26.4,26.86,0,.01,0,.02,0,.03h0V610.09c-.13,14.71,11.69,26.75,26.4,26.9H503.99c14.72-.15,26.55-12.18,26.44-26.9V72.79c.12-14.73-11.71-26.76-26.44-26.89Zm9.94,547.57c0,14.15-10.6,25.59-23.66,25.59h-233.52c-13.09,0-23.68-11.44-23.68-25.59V93.16c0-28.81,10.59-30.22,23.68-30.22h46.81c2.72,0,4.94,3.09,4.94,6.92v1.65c0,9,4.91,9,10.93,9h108.17c6.08,0,11,0,11-9v-1.65c0-3.83,2.2-6.92,5-6.92h46.76c13.07,0,23.66,3.83,23.66,30.22l-.09,500.31Z" fill="#002346"></path>
    <path d="M242.99,637.49c-14.96-.15-27.03-12.44-26.9-27.4V72.79c-.13-14.99,11.94-27.26,26.9-27.39H503.99c14.98,.13,27.06,12.42,26.94,27.39V610.09c.11,14.96-11.98,27.25-26.94,27.4H242.99Zm0-591.09c-14.4,.12-26.02,11.95-25.9,26.35V610.09c-.12,14.41,11.5,26.25,25.91,26.4H503.99c14.4-.15,26.04-11.99,25.94-26.4V72.79c.12-14.43-11.52-26.27-25.94-26.39H242.99Zm247.28,573.16h-233.52c-13.33,0-24.18-11.7-24.18-26.09V93.16c0-28.52,10.02-30.72,24.18-30.72h46.81c3,0,5.44,3.33,5.44,7.42v1.65c0,8.5,4.37,8.5,10.43,8.5h108.17c6.1,0,10.5,0,10.5-8.5v-1.65c0-4.16,2.42-7.42,5.5-7.42h46.76c14.5,0,24.16,5.22,24.16,30.72l-.09,500.31c0,14.39-10.84,26.09-24.16,26.09ZM256.75,63.44c-13.57,0-23.18,2.13-23.18,29.72v500.31c0,13.83,10.4,25.09,23.18,25.09h233.52c12.77,0,23.16-11.25,23.16-25.09l.09-500.31c0-24.75-8.86-29.72-23.16-29.72h-46.76c-2.48,0-4.5,2.88-4.5,6.42v1.65c0,9.5-5.33,9.5-11.5,9.5h-108.17c-5.88,0-11.43,0-11.43-9.5v-1.65c0-3.54-1.99-6.42-4.44-6.42h-46.81Z" fill="#002346"></path>
  </g>
  <path d="M513.93,93.59v500.32c0,14.14-10.59,25.58-23.65,25.58h-233.51c-13.09,0-23.69-11.44-23.69-25.58V93.59c0-28.81,10.6-30.22,23.69-30.22h46.79c2.72,0,4.94,3.09,4.94,6.92v1.65c0,9,4.91,9,10.93,9h108.17c6.08,0,11,0,11-9v-1.65c0-3.83,2.2-6.92,5-6.92h46.76c12.97-.01,23.57,3.83,23.57,30.22Z" fill="#fff"></path>
  <g opacity=".2">
    <path d="M388.25,69.3h-29.51c-1,0-1.81-.82-1.81-1.82h0c0-1.01,.81-1.82,1.82-1.82h29.51c.99,.03,1.77,.83,1.77,1.82h0c0,.99-.79,1.8-1.78,1.82Z"></path>
  </g>
  <path d="M492.85,79.6h-15.16v-7h15.16v7Zm-14.39-.77h13.61v-5.47h-13.61v5.47Z" fill="#002346"></path>
  <rect x="478.95" y="73.78" width="9.77" height="4.63" fill="#002346"></rect>
  <rect x="492.85" y="74.21" width="1.34" height="3.75" fill="#002346"></rect>
  <path d="M328.39,191.5v3.74h-20.46v-3.74h8.59v-25.94c-.47,.61-1.03,1.13-1.67,1.55-.83,.57-1.7,1.08-2.6,1.54-.94,.48-1.92,.88-2.93,1.21-.85,.29-1.75,.45-2.65,.48v-4c1.07-.03,2.13-.3,3.08-.79,1.08-.52,2.11-1.12,3.09-1.8,.88-.6,1.72-1.25,2.52-1.95,.44-.33,.83-.74,1.14-1.2h4.23v30.89h7.66Z" fill="#002346"></path>
  <path d="M363.36,177.47c.02,2.49-.36,4.97-1.14,7.33-.7,2.11-1.78,4.08-3.18,5.81-4.89,5.99-13.71,6.87-19.7,1.98-.72-.59-1.39-1.26-1.98-1.98-1.4-1.73-2.48-3.7-3.18-5.81-1.52-4.78-1.52-9.9,0-14.68,.7-2.11,1.78-4.07,3.18-5.79,1.31-1.61,2.94-2.92,4.8-3.84,3.81-1.86,8.26-1.86,12.07,0,1.86,.92,3.5,2.23,4.81,3.84,1.4,1.72,2.48,3.68,3.18,5.79,.78,2.37,1.16,4.85,1.14,7.35Zm-4.17,0c.03-2.01-.25-4.01-.82-5.93-.48-1.64-1.24-3.18-2.25-4.56-.93-1.24-2.12-2.26-3.48-3-2.81-1.4-6.12-1.4-8.93,0-1.37,.73-2.56,1.75-3.48,3-1.02,1.37-1.79,2.92-2.27,4.56-1.09,3.87-1.09,7.97,0,11.84,.47,1.67,1.24,3.24,2.27,4.63,.92,1.23,2.11,2.23,3.48,2.92,4.29,2.23,9.56,.94,12.35-3,1.02-1.4,1.78-2.97,2.25-4.63,.57-1.9,.85-3.87,.83-5.85l.05,.02Z" fill="#002346"></path>
  <path d="M370.62,169.79v-5.91h3.5v5.91h-3.5Zm0,25.37v-5.91h3.5v5.91h-3.5Z" fill="#002346"></path>
  <path d="M398.76,180.91c2.51,.36,4.79,1.65,6.38,3.63,1.63,2.08,2.47,4.66,2.37,7.3,.02,1.72-.32,3.42-1,5-.65,1.48-1.62,2.8-2.84,3.86-1.3,1.1-2.8,1.95-4.42,2.48-1.84,.61-3.76,.9-5.7,.87-2.78,.06-5.53-.57-8-1.84-2.21-1.13-4.02-2.92-5.19-5.11l2.84-2.59c.83,1.76,2.18,3.24,3.86,4.23,1.99,1.11,4.25,1.64,6.53,1.54,2.56,.15,5.09-.64,7.12-2.21,1.79-1.59,2.74-3.92,2.59-6.31,.13-2.49-.87-4.9-2.71-6.58-2.23-1.75-5.02-2.62-7.85-2.42h-1.54v-3.51h1.64c2.55,.16,5.07-.6,7.09-2.16,1.64-1.38,2.56-3.44,2.49-5.59,.02-1.1-.21-2.19-.66-3.2-.44-.9-1.08-1.7-1.86-2.33-.83-.64-1.77-1.12-2.78-1.42-1.13-.32-2.3-.48-3.47-.48-2.13-.04-4.22,.49-6.07,1.55-1.72,.98-3.1,2.47-3.95,4.26l-2.65-2.55c.5-1.07,1.19-2.04,2.05-2.86,.89-.88,1.9-1.62,3-2.2,1.19-.63,2.45-1.11,3.75-1.42,1.38-.35,2.8-.52,4.23-.51,1.73-.02,3.45,.24,5.1,.77,1.46,.48,2.82,1.23,4,2.21,1.11,.93,2,2.1,2.62,3.41,.63,1.38,.95,2.89,.93,4.41,0,1.18-.18,2.36-.54,3.48-.66,2.16-2.1,4-4.05,5.14-1.02,.6-2.14,.99-3.31,1.15Z" fill="#002346"></path>
  <path d="M431.8,202.83v-10.8h-20.16v-3.62l21.44-27.79h2.78v27.79h5.33v3.76h-5.33v10.8l-4.06-.14Zm-15.76-14.42h16.19v-21.27l-16.19,21.27Z" fill="#002346"></path>
  <path d="M321.93,213.67h-4.51v11.42h-1.24v-11.4h-4.44v-1.1h10.19v1.08Z" fill="#002346"></path>
  <path d="M324.56,225.24c-.86,.06-1.69-.32-2.22-1-.55-.9-.8-1.95-.73-3v-5.37h1.19v5.22c0,2.06,.71,3.09,2.13,3.09,.34,0,.68-.06,1-.17,.34-.12,.65-.29,.94-.51,.29-.23,.55-.5,.77-.8,.24-.3,.43-.64,.56-1v-5.75h1.18v7.61c0,.32,.16,.49,.44,.49v1.04h-.53c-.26,0-.51-.1-.69-.29-.19-.21-.28-.48-.27-.76v-1c-.77,1.38-2.23,2.24-3.81,2.24l.04-.04Z" fill="#002346"></path>
  <path d="M336.09,225.24c-.63,0-1.25-.12-1.83-.37-1.11-.51-1.98-1.44-2.41-2.58-.23-.59-.35-1.21-.34-1.84,0-.62,.11-1.24,.34-1.82,.21-.57,.53-1.1,.94-1.55,.42-.42,.91-.76,1.45-1,.58-.25,1.21-.38,1.84-.37,1.24-.03,2.43,.48,3.26,1.4,.4,.45,.72,.97,.94,1.54,.22,.57,.33,1.19,.32,1.8v.27c0,.06,0,.13,0,.19h-7.83c.03,.47,.14,.94,.34,1.37,.35,.81,1,1.46,1.82,1.81,.4,.17,.83,.26,1.26,.25,.3,0,.59-.04,.88-.12,.28-.08,.55-.19,.81-.33,.25-.14,.47-.32,.67-.52,.19-.19,.35-.43,.45-.68l1,.28c-.15,.34-.35,.65-.61,.92-.26,.29-.56,.53-.89,.73-.36,.2-.74,.36-1.13,.48-.42,.1-.85,.15-1.28,.14Zm3.37-5.24c-.05-.9-.44-1.75-1.08-2.39-.29-.29-.63-.52-1-.68-.4-.17-.82-.25-1.25-.25-.43,0-.86,.08-1.26,.25-.37,.16-.71,.39-1,.68-.31,.31-.55,.67-.73,1.07-.17,.42-.28,.87-.32,1.32h6.64Z" fill="#002346"></path>
  <path d="M345.5,225.24c-.71,0-1.42-.12-2.1-.34-.64-.22-1.24-.56-1.75-1l.54-.82c.46,.41,.98,.75,1.55,1,.55,.2,1.13,.31,1.71,.31,.62,.04,1.23-.12,1.76-.45,.43-.28,.68-.76,.66-1.27,.01-.23-.05-.46-.18-.65-.13-.19-.31-.34-.51-.44-.28-.15-.57-.26-.87-.34-.34-.11-.74-.2-1.2-.31s-1-.27-1.37-.39c-.35-.1-.69-.25-1-.45-.24-.14-.43-.35-.56-.6-.13-.28-.19-.58-.18-.89-.01-.42,.08-.84,.28-1.22,.16-.35,.41-.65,.72-.87,.33-.24,.7-.41,1.1-.52,.43-.12,.88-.17,1.33-.17,.65-.01,1.3,.1,1.91,.34,.53,.19,1,.5,1.39,.91l-.59,.69c-.34-.36-.76-.63-1.23-.78-.49-.19-1.02-.28-1.55-.27-.3,0-.59,.03-.88,.1-.25,.06-.49,.16-.71,.3-.43,.29-.68,.78-.66,1.3,0,.21,.04,.41,.12,.6,.1,.16,.23,.3,.4,.39,.22,.13,.46,.23,.71,.31l1.05,.28c.59,.13,1.1,.27,1.55,.41,.39,.12,.76,.29,1.11,.5,.28,.16,.52,.4,.68,.68,.16,.31,.24,.65,.23,1,.01,.79-.36,1.54-1,2-.73,.47-1.59,.7-2.46,.66Z" fill="#002346"></path>
  <path d="M354.77,225.24c-.61,0-1.21-.13-1.76-.39-.52-.24-.99-.58-1.38-1-.79-.91-1.23-2.08-1.24-3.29,0-.62,.11-1.24,.32-1.83,.2-.56,.49-1.09,.87-1.55,.4-.39,.87-.71,1.39-.93,.52-.24,1.09-.37,1.67-.37,.73-.01,1.45,.2,2.06,.61,.58,.4,1.06,.93,1.41,1.54v-5.64h1.19v11.29c0,.32,.14,.49,.42,.49v1h-.42c-.27,0-.53-.09-.74-.26-.2-.17-.31-.41-.31-.67v-.89c-.38,.6-.92,1.09-1.55,1.42-.59,.33-1.26,.49-1.93,.47Zm.27-1.05c.32-.01,.64-.07,.94-.17,.34-.12,.65-.29,.94-.5,.29-.19,.54-.43,.74-.71,.2-.26,.33-.57,.39-.89v-2.83c-.12-.32-.29-.62-.51-.88-.23-.27-.49-.52-.77-.74-.29-.2-.6-.37-.93-.49-.32-.12-.66-.17-1-.17-.47,0-.93,.1-1.34,.32-.39,.2-.73,.48-1,.83-.29,.35-.52,.75-.66,1.18-.16,.44-.23,.9-.23,1.37,0,.96,.35,1.88,1,2.58,.3,.34,.67,.61,1.08,.8,.42,.2,.88,.3,1.35,.3Z" fill="#002346"></path>
  <path d="M364.24,225.24c-.41,0-.81-.07-1.19-.22-.37-.13-.71-.33-1-.6-.28-.26-.5-.57-.65-.91-.14-.35-.22-.73-.22-1.11,0-.39,.1-.77,.28-1.12,.19-.35,.46-.65,.79-.88,.37-.26,.78-.45,1.22-.57,.5-.13,1.02-.2,1.54-.2,.48,0,.95,.05,1.42,.13,.44,.07,.87,.19,1.28,.35v-.82c.04-.71-.2-1.4-.68-1.93-.5-.49-1.19-.75-1.89-.71-.5,0-.99,.1-1.46,.28-.54,.2-1.06,.47-1.54,.8l-.43-.78c1-.73,2.2-1.15,3.44-1.19,1-.04,1.98,.32,2.72,1,.69,.72,1.05,1.69,1,2.68v4.13c0,.33,.16,.5,.45,.5v1h-.46c-.26,.02-.51-.06-.71-.22-.18-.16-.28-.39-.27-.63v-.73c-.4,.55-.93,.98-1.54,1.27-.66,.31-1.37,.48-2.1,.48Zm.29-.91c.59,.01,1.18-.11,1.72-.36,.47-.2,.88-.52,1.18-.93,.1-.1,.18-.22,.24-.34,.02-.11,.02-.23,0-.34v-1.54c-.4-.15-.82-.27-1.24-.35-.43-.08-.87-.13-1.31-.13-.72-.03-1.43,.16-2.05,.53-.5,.28-.81,.81-.79,1.39,0,.27,.05,.55,.15,.8,.12,.24,.28,.45,.47,.63,.2,.19,.43,.34,.69,.44,.3,.13,.62,.2,.94,.2h0Z" fill="#002346"></path>
  <path d="M371.82,227.88h.52c.17,0,.35-.02,.51-.08,.16-.09,.28-.23,.36-.39,.16-.28,.29-.56,.4-.86,.14-.37,.36-.88,.62-1.54l-4-9.16h1.26l3.39,8,3.09-8h1.24l-4.76,11.81c-.13,.34-.35,.65-.63,.88-.35,.28-.78,.41-1.22,.39h-.67l-.11-1.05Z" fill="#002346"></path>
  <path d="M380.17,226.49l.3-1.47h-.41v-1.68h1.16v1.68l-.43,1.47h-.62Z" fill="#002346"></path>
  <path d="M396.93,220.96c0,.57-.11,1.14-.34,1.67-.22,.51-.54,.98-.94,1.37-.41,.39-.88,.69-1.4,.91-.56,.22-1.15,.33-1.75,.33-.62,.01-1.23-.11-1.8-.36-.55-.22-1.03-.56-1.42-1-.42-.48-.73-1.04-.93-1.64-.23-.71-.34-1.45-.32-2.19-.02-1.11,.09-2.22,.32-3.31,.18-.83,.5-1.63,.94-2.36,.36-.58,.86-1.06,1.45-1.39,.58-.31,1.23-.47,1.89-.46,.78-.02,1.56,.2,2.22,.62,.67,.4,1.21,.99,1.54,1.7l-.77,.71c-.46-1.22-1.64-2.02-2.95-2-.49,0-.98,.12-1.4,.37-.45,.26-.82,.63-1.08,1.07-.34,.52-.58,1.1-.71,1.71-.18,.75-.26,1.53-.25,2.3,.25-.68,.72-1.26,1.33-1.65,.63-.41,1.37-.63,2.13-.62,.58,0,1.15,.11,1.68,.34,.51,.21,.97,.51,1.36,.89,.8,.79,1.24,1.88,1.2,3h0Zm-4.4,3.22c.44,0,.87-.08,1.27-.25,.37-.17,.71-.4,1-.69,.29-.29,.53-.63,.7-1,.17-.39,.26-.82,.26-1.25,0-.44-.09-.87-.26-1.27-.18-.37-.42-.71-.71-1-.3-.29-.66-.53-1.05-.7-.8-.35-1.7-.35-2.5,0-.39,.17-.75,.4-1.05,.7-.63,.59-.99,1.41-1,2.28,0,.43,.09,.85,.28,1.24,.17,.38,.41,.72,.71,1,.29,.3,.63,.54,1,.71,.42,.17,.88,.25,1.34,.23h.01Z" fill="#002346"></path>
  <path d="M414.72,225.09v-10.27l-4.55,7.93h-.71l-4.53-7.93v10.27h-1.24v-12.5h1.24l4.88,8.54,4.89-8.54h1.23v12.5h-1.21Z" fill="#002346"></path>
  <path d="M421.12,225.24c-.41,0-.83-.07-1.21-.22-.38-.12-.72-.33-1-.6-.28-.26-.5-.57-.65-.91-.16-.35-.24-.73-.23-1.11,0-.39,.09-.78,.27-1.12,.21-.34,.49-.64,.81-.88,.37-.26,.77-.45,1.2-.57,.5-.13,1.02-.2,1.54-.2,.48,0,.96,.05,1.44,.13,.44,.07,.87,.19,1.28,.35v-.82c.04-.71-.21-1.41-.69-1.93-.51-.49-1.2-.75-1.9-.71-.49,0-.98,.1-1.44,.28-.54,.21-1.06,.48-1.54,.8l-.42-.78c1-.73,2.2-1.15,3.44-1.19,1-.04,1.98,.32,2.71,1,.69,.72,1.05,1.69,1,2.68v4.13c0,.33,.16,.5,.45,.5v1h-.46c-.26,.02-.51-.06-.71-.22-.18-.16-.28-.39-.28-.63v-.73c-.4,.54-.93,.98-1.54,1.27-.65,.31-1.35,.47-2.07,.48Zm.27-.91c.59,.01,1.18-.11,1.72-.36,.48-.19,.89-.51,1.19-.93,.1-.1,.18-.21,.24-.34,.02-.11,.02-.23,0-.34v-1.54c-.41-.15-.82-.27-1.25-.35-.43-.08-.86-.13-1.29-.13-.73-.02-1.44,.16-2.07,.53-.5,.28-.81,.81-.79,1.39,0,.28,.06,.55,.17,.8,.11,.24,.27,.45,.46,.63,.2,.19,.44,.34,.7,.44,.29,.13,.6,.2,.92,.2h0Z" fill="#002346"></path>
  <path d="M428.7,227.88h.52c.17,0,.34-.02,.5-.08,.15-.1,.28-.23,.37-.39,.14-.28,.27-.57,.38-.86,.16-.37,.36-.88,.64-1.54l-4-9.1h1.23l3.4,8,3.09-8h1.1l-4.76,11.81c-.13,.35-.34,.65-.63,.88-.35,.27-.78,.41-1.22,.39h-.73l.11-1.11Z" fill="#002346"></path>
  <path d="M477.39,593.52h0c-9.27,0-16.8-7.51-16.81-16.78h0c0-9.29,7.52-16.81,16.81-16.82h0c9.28,.01,16.81,7.54,16.82,16.82h0c0,9.29-7.53,16.81-16.82,16.81v-.03Z" fill="#002346"></path>
  <rect x="467.14" y="571.64" width="20.5" height="12.52" fill="#fff"></rect>
  <polygon points="482.49 571.64 472.3 571.64 473.3 569.25 481.47 569.25 482.49 571.64" fill="#fff"></polygon>
  <path d="M482.15,577.91c0,2.63-2.12,4.76-4.75,4.77-2.63,0-4.76-2.12-4.77-4.75,0-2.63,2.12-4.76,4.75-4.77h0c2.62,0,4.75,2.12,4.76,4.75Z" fill="#002346"></path>
  <path d="M481.11,577.91c0,2.04-1.65,3.69-3.69,3.69s-3.69-1.65-3.69-3.69,1.65-3.69,3.69-3.69,3.69,1.65,3.69,3.69h0Z" fill="#fff"></path>
  <rect x="484.46" y="572.71" width="1.98" height="1.13" fill="#002346"></rect>
  <rect x="467.84" y="570.72" width="1.95" height=".57" fill="#fff"></rect>
  <path d="M268.19,593.52h0c-9.28,0-16.8-7.53-16.81-16.81h0c.01-9.28,7.53-16.8,16.81-16.82h0c9.3,0,16.84,7.52,16.85,16.82h0c0,9.29-7.53,16.81-16.82,16.81h-.03Z" fill="#002346"></path>
  <rect x="263.98" y="574.3" width="8.24" height="13.77" fill="#fff"></rect>
  <polygon points="274.49 567.92 274.49 571.1 272.39 573.59 263.81 573.59 261.72 571.1 261.72 567.92 274.49 567.92" fill="#fff"></polygon>
  <rect x="261.72" y="565.34" width="12.77" height="1.82" fill="#fff"></rect>
  <g>
    <path d="M356.65,578.85c0,2.04-1.65,3.7-3.69,3.71-2.04,0-3.7-1.65-3.71-3.69,0-2.04,1.65-3.7,3.69-3.71h0c2.03,0,3.67,1.63,3.68,3.66h0s.02,.03,.02,.03Z" fill="#fff"></path>
    <path d="M352.94,583.06c-1.12,0-2.17-.43-2.96-1.22-.8-.79-1.24-1.84-1.24-2.97s.43-2.18,1.22-2.97c.79-.79,1.84-1.23,2.97-1.24h.01c1.12,0,2.16,.43,2.95,1.21,.74,.74,1.17,1.7,1.22,2.74h0s.02,.23,.02,.23c0,1.12-.43,2.18-1.22,2.97-.79,.79-1.84,1.23-2.97,1.24h-.01Zm.01-7.4h0c-.87,0-1.67,.34-2.27,.94-.6,.61-.93,1.41-.93,2.27,0,.85,.34,1.66,.94,2.26,.6,.6,1.4,.93,2.26,.93h0c.85,0,1.66-.34,2.26-.94,.55-.56,.88-1.28,.93-2.06h-.01v-.22c0-.86-.33-1.65-.93-2.25-.6-.59-1.39-.92-2.23-.92Z" fill="#002346"></path>
  </g>
  <g>
    <circle cx="373.51" cy="578.85" r="5.58" fill="#a885f7"></circle>
    <path d="M373.51,584.93c-3.35,0-6.08-2.73-6.08-6.08s2.73-6.08,6.08-6.08,6.08,2.73,6.08,6.08-2.73,6.08-6.08,6.08Zm0-11.16c-2.8,0-5.08,2.28-5.08,5.08s2.28,5.08,5.08,5.08,5.08-2.28,5.08-5.08-2.28-5.08-5.08-5.08Z" fill="#002346"></path>
  </g>
  <g>
    <path d="M397.75,578.85c0,2.04-1.65,3.7-3.69,3.71-2.04,0-3.7-1.65-3.71-3.69,0-2.04,1.65-3.7,3.69-3.71h0c2.04,0,3.69,1.65,3.7,3.69Z" fill="#fff"></path>
    <path d="M394.04,583.06c-1.12,0-2.17-.43-2.96-1.22-.8-.79-1.24-1.84-1.24-2.97s.43-2.18,1.22-2.97c.79-.79,1.84-1.23,2.97-1.24,2.32,0,4.21,1.88,4.21,4.19,0,1.12-.43,2.18-1.22,2.97-.79,.79-1.84,1.23-2.97,1.24h-.01Zm0-7.4c-.86,0-1.67,.34-2.27,.94-.6,.61-.93,1.41-.93,2.27,0,.85,.34,1.66,.94,2.26,.6,.6,1.4,.93,2.26,.93h0c.85,0,1.66-.34,2.26-.94,.6-.61,.93-1.41,.93-2.27,0-1.76-1.44-3.19-3.2-3.19Z" fill="#002346"></path>
  </g>
  <g>
    <path d="M464.93,175.59c-7.21,0-13.06,5.85-13.06,13.06v61.91c.03,7.17,5.83,12.97,13,13h24.16v13.38l26.2-13.37h120.89c7.19,0,13.03-5.81,13.06-13v-62c0-7.18-5.82-13-13-13-.02,0-.04,0-.06,0l-171.19,.02Z" fill="#a885f7"></path>
    <path d="M488.53,277.76v-13.7h-23.66c-7.41-.03-13.47-6.09-13.5-13.5v-61.91c0-7.48,6.08-13.56,13.56-13.56l171.19-.02c7.5,0,13.56,6.06,13.56,13.5v62c-.03,7.45-6.12,13.5-13.56,13.5h-120.77l-26.82,13.69Zm-23.6-101.67c-6.93,0-12.56,5.63-12.56,12.56v61.91c.03,6.86,5.64,12.47,12.5,12.5h24.66v13.06l25.58-13.05h121.01c6.89,0,12.53-5.61,12.56-12.5v-62c0-6.89-5.61-12.5-12.5-12.5l-171.25,.02Z" fill="#002346"></path>
  </g>
  <g>
    <rect x="257.67" y="309.8" width="229.51" height="73.58" rx="11.42" ry="11.42" fill="#ff7e5f"></rect>
    <path d="M475.76,383.88h-206.67c-6.57,0-11.92-5.35-11.92-11.92v-50.74c0-6.57,5.35-11.92,11.92-11.92h206.67c6.57,0,11.92,5.35,11.92,11.92v50.74c0,6.57-5.35,11.92-11.92,11.92Zm-206.67-73.58c-6.02,0-10.92,4.9-10.92,10.92v50.74c0,6.02,4.9,10.92,10.92,10.92h206.67c6.02,0,10.92-4.9,10.92-10.92v-50.74c0-6.02-4.9-10.92-10.92-10.92h-206.67Z" fill="#002346"></path>
  </g>
  <path d="M470.36,325.4c-.13,0-.26-.05-.36-.15-.19-.2-.19-.52,.01-.71q6.36-6.14,6.57-6.14c.28,0,.5,.22,.5,.5,0,.15-.07,.29-.17,.38-.22,.2-4.54,4.38-6.2,5.98-.1,.09-.22,.14-.35,.14Z" fill="#002346"></path>
  <path d="M476.71,325.62c-.15,0-.29-.07-.38-.17-.2-.22-4.38-4.55-5.98-6.21-.19-.2-.19-.51,.01-.71,.2-.19,.52-.19,.71,.01q6.14,6.36,6.14,6.58c0,.28-.22,.5-.5,.5Z" fill="#002346"></path>
  <rect x="267.78" y="324.5" width="42.71" height="42.71" rx="6.24" ry="6.24" fill="#002346"></rect>
  <g>
    <path d="M305.42,318.47c4.1-1.64,8.76,.36,10.4,4.46,1.64,4.1-.36,8.76-4.46,10.4s-8.76-.36-10.4-4.46c0-.02-.02-.04-.03-.07-1.6-4.08,.39-8.69,4.46-10.33h.03Z" fill="#a885f7"></path>
    <path d="M308.39,334.4c-3.38,0-6.58-2.03-7.91-5.35-1.71-4.39,.41-9.31,4.71-11.04l.12-.04c4.33-1.67,9.23,.46,10.95,4.78,1.74,4.35-.39,9.31-4.74,11.05-1.03,.41-2.09,.61-3.14,.61Zm-2.91-15.43c-3.73,1.56-5.57,5.87-4.09,9.65,1.56,3.9,5.93,5.78,9.77,4.25,3.84-1.53,5.72-5.91,4.18-9.75s-5.91-5.72-9.75-4.18l-.12,.04Z" fill="#002346"></path>
  </g>
  <path d="M307.48,328.54c0,.28-.23,.5-.5,.5h-3.26c-.14,0-.28-.05-.37-.16-.19-.2-.19-.51,0-.71h0l2.7-2.45c.25-.22,.4-.55,.39-.89,0-.29-.11-.57-.3-.78-.23-.25-.55-.39-.89-.39-.29,0-.57,.12-.79,.31l-.28,.25c-.2,.2-.52,.2-.72,0-.19-.21-.17-.53,.04-.71,0,0,0,0,0,0l.27-.24c.39-.36,.9-.56,1.43-.57,1.21,0,2.19,.97,2.2,2.17,0,.62-.26,1.21-.71,1.63h0l-1.74,1.56h1.96c.28-.04,.53,.16,.57,.43,0,0,0,.01,0,.02,0,.01,0,.02,0,.04Z" fill="#002346"></path>
  <path d="M312.22,325.14c.43,.42,.66,1,.65,1.61,0,1.25-1,2.27-2.24,2.28-.6,0-1.18-.23-1.61-.65h0c-.2-.21-.2-.53,0-.74,.2-.2,.53-.2,.73,0,.23,.23,.55,.36,.88,.36,.33,0,.65-.13,.89-.36,.47-.49,.47-1.26,0-1.75-.24-.23-.55-.36-.88-.36-.14,0-.28-.05-.37-.16h0c-.19-.2-.19-.51,0-.71h0l.93-.93h-1.43c-.28,0-.51-.23-.51-.51,0-.28,.22-.51,.5-.51,0,0,.01,0,.02,0h2.7c.28,0,.52,.22,.52,.5,0,0,0,0,0,0,0,.08,0,.16,0,.24-.03,.05-.06,.09-.1,.13l-1.21,1.14c.21,.11,.39,.25,.54,.42Z" fill="#002346"></path>
  <g>
    <rect x="325.93" y="324.5" width="76.39" height="6.16" fill="#002346"></rect>
    <rect x="325.93" y="337.55" width="140.95" height="4.35" fill="#002346"></rect>
    <rect x="325.93" y="345.26" width="140.95" height="4.35" fill="#002346"></rect>
    <rect x="325.93" y="352.94" width="140.95" height="4.35" fill="#002346"></rect>
  </g>
  <path d="M301.83,356.9l-1.78-2.54c-1.06-1.52-1.64-3.33-1.64-5.19v-5.68c0-4.55-3.33-8.43-7.83-9.12v-2.7c0-.7-.57-1.27-1.27-1.27h0c-.7,0-1.27,.57-1.27,1.27v2.66c-4.65,.55-8.16,4.49-8.16,9.17v5.86c0,2.01-.67,3.97-1.91,5.56l-1.54,1.95,25.4,.03Z" fill="#fff"></path>
  <path d="M287.83,361.02c1.4,.57,3.01,.29,4.14-.71,.47-.44,.81-1,1-1.61h-7.34c.38,1.05,1.18,1.89,2.2,2.32Z" fill="#fff"></path>
  <path d="M629.87,194.02h-125.71c-.28,0-.5-.22-.5-.5s.22-.5,.5-.5h125.71c.28,0,.5,.22,.5,.5s-.22,.5-.5,.5Z" fill="#002346"></path>
  <path d="M620.39,198.97h-116.23c-.28,0-.5-.22-.5-.5s.22-.5,.5-.5h116.23c.28,0,.5,.22,.5,.5s-.22,.5-.5,.5Z" fill="#002346"></path>
  <path d="M610.09,204.32h-105.93c-.28,0-.5-.22-.5-.5s.22-.5,.5-.5h105.93c.28,0,.5,.22,.5,.5s-.22,.5-.5,.5Z" fill="#002346"></path>
  <path d="M598.96,209.27h-94.8c-.28,0-.5-.22-.5-.5s.22-.5,.5-.5h94.8c.28,0,.5,.22,.5,.5s-.22,.5-.5,.5Z" fill="#002346"></path>
  <path d="M629.87,226.58h-125.71c-.28,0-.5-.22-.5-.5s.22-.5,.5-.5h125.71c.28,0,.5,.22,.5,.5s-.22,.5-.5,.5Z" fill="#002346"></path>
  <path d="M620.39,231.53h-116.23c-.28,0-.5-.22-.5-.5s.22-.5,.5-.5h116.23c.28,0,.5,.22,.5,.5s-.22,.5-.5,.5Z" fill="#002346"></path>
  <path d="M610.09,236.89h-105.93c-.28,0-.5-.22-.5-.5s.22-.5,.5-.5h105.93c.28,0,.5,.22,.5,.5s-.22,.5-.5,.5Z" fill="#002346"></path>
  <path d="M598.96,241.83h-94.8c-.28,0-.5-.22-.5-.5s.22-.5,.5-.5h94.8c.28,0,.5,.22,.5,.5s-.22,.5-.5,.5Z" fill="#002346"></path>
  <path d="M489.41,212.11h-20.71c-.28,0-.5-.22-.5-.5v-20.71c0-.28,.22-.5,.5-.5h20.71c.28,0,.5,.22,.5,.5v20.71c0,.28-.22,.5-.5,.5Zm-20.21-1h19.71v-19.71h-19.71v19.71Z" fill="#002346"></path>
  <path d="M489.41,244.26h-20.71c-.28,0-.5-.22-.5-.5v-20.71c0-.28,.22-.5,.5-.5h20.71c.28,0,.5,.22,.5,.5v20.71c0,.28-.22,.5-.5,.5Zm-20.21-1h19.71v-19.71h-19.71v19.71Z" fill="#002346"></path>
  <g>
    <rect x="351.03" y="433.07" width="225.73" height="72.37" rx="11.24" ry="11.24" fill="#a885f7"></rect>
    <path d="M565.52,505.94h-203.25c-6.47,0-11.74-5.27-11.74-11.74v-49.89c0-6.47,5.27-11.74,11.74-11.74h203.25c6.47,0,11.74,5.27,11.74,11.74v49.89c0,6.47-5.27,11.74-11.74,11.74Zm-203.25-72.37c-5.92,0-10.74,4.82-10.74,10.74v49.89c0,5.92,4.82,10.74,10.74,10.74h203.25c5.92,0,10.74-4.82,10.74-10.74v-49.89c0-5.92-4.82-10.74-10.74-10.74h-203.25Z" fill="#002346"></path>
  </g>
  <g>
    <rect x="360.97" y="447.53" width="42.01" height="42.01" rx="6.71" ry="6.71" fill="#fff"></rect>
    <path d="M396.27,490.04h-28.59c-3.98,0-7.21-3.23-7.21-7.21v-28.59c0-3.98,3.23-7.21,7.21-7.21h28.59c3.98,0,7.21,3.23,7.21,7.21v28.59c0,3.98-3.23,7.21-7.21,7.21Zm-28.59-42.01c-3.42,0-6.21,2.79-6.21,6.21v28.59c0,3.42,2.79,6.21,6.21,6.21h28.59c3.42,0,6.21-2.79,6.21-6.21v-28.59c0-3.42-2.79-6.21-6.21-6.21h-28.59Z" fill="#002346"></path>
  </g>
  <rect x="367.02" y="459.18" width="29.92" height="18.98" fill="#002346"></rect>
  <path d="M398,441.6c4.02-1.59,8.56,.37,10.15,4.39,1.59,4.02-.37,8.56-4.39,10.15-4.02,1.59-8.56-.37-10.15-4.39,0,0,0,0,0,0-1.59-4.01,.36-8.55,4.37-10.14,0,0,.01,0,.02,0Z" fill="#002346"></path>
  <path d="M399.98,451.69c0,.29-.23,.52-.52,.52,0,0,0,0-.01,0h-3.44c-.15,0-.29-.05-.39-.16-.21-.21-.21-.54,0-.75h0s2.85-2.57,2.85-2.57c.27-.24,.42-.58,.41-.94,0-.68-.55-1.23-1.23-1.23,0,0-.01,0-.02,0-.31,0-.6,.11-.83,.31l-.3,.27c-.22,.2-.55,.18-.75-.04s-.18-.55,.04-.75h0l.28-.26c.98-.81,2.43-.67,3.24,.32,.75,.92,.69,2.26-.16,3.09h0l-1.82,1.64h2.07c.3-.03,.56,.18,.6,.48l-.02,.07Z" fill="#fff"></path>
  <path d="M404.93,448.09c.45,.44,.7,1.06,.69,1.69,0,.63-.25,1.24-.69,1.69-.93,.93-2.44,.93-3.37,0h0c-.21-.2-.22-.54-.02-.75,0,0,.01-.01,.02-.02,.2-.21,.53-.22,.73-.03,0,0,.02,.02,.03,.03,.24,.24,.58,.38,.92,.37,.35,0,.69-.13,.94-.37,.24-.25,.38-.58,.38-.92,0-.34-.14-.68-.38-.92-.25-.24-.58-.38-.92-.39-.15,.01-.3-.05-.39-.17h0c-.21-.21-.21-.54,0-.75h0s1-1,1-1h-1.51c-.3,0-.54-.24-.54-.54,0-.3,.24-.54,.54-.54h2.85c.3,0,.54,.24,.54,.54h0c.02,.09,.02,.17,0,.26-.02,.05-.06,.1-.1,.13l-1.21,1.25c.18,.12,.35,.27,.49,.44Z" fill="#fff"></path>
  <g>
    <rect x="418.17" y="447.53" width="75.14" height="6.05" fill="#fff"></rect>
    <path d="M493.81,454.08h-76.14v-7.05h76.14v7.05Zm-75.14-1h74.14v-5.05h-74.14v5.05Z" fill="#002346"></path>
  </g>
  <g>
    <rect x="418.17" y="460.36" width="138.63" height="4.27" fill="#fff"></rect>
    <path d="M557.3,465.13h-139.63v-5.27h139.63v5.27Zm-138.63-1h137.63v-3.27h-137.63v3.27Z" fill="#002346"></path>
  </g>
  <g>
    <rect x="418.17" y="467.94" width="138.63" height="4.27" fill="#fff"></rect>
    <path d="M557.3,472.71h-139.63v-5.27h139.63v5.27Zm-138.63-1h137.63v-3.27h-137.63v3.27Z" fill="#002346"></path>
  </g>
  <g>
    <rect x="418.17" y="475.5" width="138.63" height="4.27" fill="#fff"></rect>
    <path d="M557.3,480.27h-139.63v-5.27h139.63v5.27Zm-138.63-1h137.63v-3.27h-137.63v3.27Z" fill="#002346"></path>
  </g>
  <path d="M367.02,459.18c5.07,2.74,10,5.72,14.89,8.77h-.52c2.55-1.53,5.11-3.05,7.7-4.51,2.28-1.28,5.53-3.1,7.84-4.26-1.21,.86-2.46,1.67-3.69,2.51-3.63,2.36-7.64,4.91-11.34,7.11-.16,.1-.36,.1-.52,0-4.87-3.09-9.69-6.24-14.36-9.62h0Z" fill="#fff"></path>
  <path d="M377.47,465.99c-2.95,4.48-6.46,8.57-10.45,12.16,2.94-4.49,6.46-8.57,10.45-12.16Z" fill="#fff"></path>
  <path d="M386.29,466.09c4.05,3.53,7.62,7.56,10.64,12-4.05-3.53-7.62-7.56-10.64-12Z" fill="#fff"></path>
  <path d="M559.98,447.91c-.13,0-.26-.05-.36-.15-.19-.2-.19-.51,.01-.71l2.73-2.63q3.08-2.97,3.43-2.62c.2,.2,.2,.51,0,.71-.01,.01-.02,.02-.04,.03-.23,.21-3.36,3.23-5.43,5.23-.1,.09-.22,.14-.35,.14Z" fill="#002346"></path>
  <path d="M565.54,448.11c-.13,0-.26-.05-.35-.15-.01-.01-.02-.02-.03-.04-.21-.23-3.23-3.36-5.23-5.43-.19-.2-.19-.52,.01-.71,.2-.19,.52-.19,.71,.01l2.63,2.73q2.97,3.08,2.62,3.43c-.1,.1-.23,.15-.35,.15Z" fill="#002346"></path>
  <polygon points="473.75 201.59 476.58 198.55 481.3 202.32 492.09 191.84 494.68 194.89 481.09 208.29 473.75 201.59" fill="#002346"></polygon>
  <polygon points="473.75 233.74 476.58 230.7 481.3 234.47 492.09 223.99 494.68 227.04 481.09 240.44 473.75 233.74" fill="#002346"></polygon>
</svg>
